<svg width="112" height="113" viewBox="0 0 112 113" fill="none" xmlns="http://www.w3.org/2000/svg">
<path d="M75.0102 62.7751C74.9846 62.4682 74.9484 62.1618 74.8687 61.8531C74.1089 58.9087 71.1046 57.1369 68.159 57.8974L59.9461 60.0196C57.533 59.8951 55.242 59.2557 53.8999 57.5446C51.1051 53.982 52.2905 42.073 50.4003 36.9483C50.0623 36.0342 56.8343 32.3068 56.8343 32.3068C62.0299 29.1361 63.9267 27.004 63.1064 23.6712C62.2879 20.339 58.3426 17.9258 55.4474 20.4869C52.5517 23.0499 43.8365 28.2024 43.8365 28.2024L43.8353 28.203C40.1349 29.7421 35.8303 31.7252 31.0977 33.8521C24.7368 38.0903 23.1089 46.0945 15.6796 48.0126L6.7664 50.314C5.12407 50.7383 4.13641 52.4159 4.56072 54.0582L10.5197 77.1279C10.9446 78.7715 13.126 78.9022 14.7696 78.4772L25.3618 75.621C25.3618 75.621 30.0911 78.8067 40.7547 76.3259L40.7607 76.3511L41.2305 76.2292L75.0102 62.7751Z" fill="#FABC7F"/>
<path d="M84.1285 64.9211L70.6742 56.0203L65.9462 63.1697L79.4011 72.0718C81.3748 73.3788 84.0353 72.8368 85.3398 70.8611C86.6468 68.8874 86.1035 66.2276 84.1285 64.9211Z" fill="#F9BB6B"/>
<path d="M19.5262 79.3595L11.1661 47.062L4.28929 48.8415L12.6494 81.1389L19.5262 79.3595Z" fill="#F4F4F4"/>
<path d="M-13.9477 80.6889L10.9599 74.605L3.53905 45.9394L-26.9998 53.8406L-13.9477 80.6889Z" fill="#00B589"/>
<path d="M-9.44369 89.9528L13.4019 84.0417L10.9603 74.605L-13.9473 80.689L-9.44369 89.9528Z" fill="#008867"/>
<path d="M41.9616 74.6968L28.4236 40.7091L81.6373 19.5134L95.1766 53.5005L41.9616 74.6968ZM103.191 48.0751L91.1876 17.9432C90.2432 15.5723 87.5494 14.4197 85.1703 15.3665L23.3792 39.9792C21 40.926 19.8367 43.6172 20.7806 45.9869L32.7837 76.1188C33.7282 78.4897 36.422 79.6423 38.8011 78.6954L100.592 54.0828C102.973 53.1353 104.135 50.4448 103.191 48.0751Z" fill="#1A1B2D"/>
<path d="M25.8488 41.7336L39.3887 75.7219L95.1763 53.5004L81.6371 19.5133L25.8488 41.7336Z" fill="#F4F4F4"/>
<path d="M25.8488 41.7336L95.1763 53.5004L81.6371 19.5133L25.8488 41.7336Z" fill="white"/>
<path d="M30.6853 61.644L31.0084 59.3691L29.2104 57.9406L29.5075 58.6869L28.12 59.2393L29.0007 61.4502L30.3876 60.8965L30.6853 61.644Z" fill="#BDBCBC"/>
<path d="M96.5812 42.8281L89.9972 26.2968C89.8863 26.0173 90.0221 25.7009 90.3016 25.59L90.392 25.5539C90.6716 25.443 90.988 25.5788 91.1001 25.8577L97.6854 42.3883C97.7962 42.6678 97.6605 42.9843 97.381 43.0951L97.2893 43.1319C97.0097 43.2427 96.6933 43.107 96.5812 42.8281Z" fill="white"/>
<path d="M57.2669 67.2687L60.6925 69.5338C61.1738 69.854 61.7476 70.0039 62.3234 69.965L67.3484 69.6181C68.068 69.5688 68.7354 69.2256 69.1936 68.671L69.4757 68.3303C70.4694 67.1288 70.2042 65.3308 68.9081 64.4645L62.1167 59.935C60.091 58.5953 57.3637 59.1511 56.0252 61.1761C54.6868 63.2011 55.2413 65.929 57.2669 67.2687Z" fill="#F9BB6B"/>
<path d="M48.4164 72.1268L50.0108 73.1815C51.2039 73.9711 52.6543 74.2725 54.0636 74.0225L56.5139 73.5858C57.589 73.2697 59.0433 71.8019 58.7046 70.9539C58.1681 69.6056 52.4336 66.0524 52.4336 66.0524C50.7561 64.9426 48.4957 65.4028 47.3878 67.081C46.278 68.7585 46.7389 71.017 48.4164 72.1268Z" fill="#F9BB6B"/>
<path d="M40.8292 75.7746L42.9229 77.1673C43.731 77.7058 44.7107 77.9245 45.6712 77.7784C45.6712 77.7784 48.4913 77.3169 49.268 76.8345C49.8043 76.5017 50.0415 75.1029 49.8076 74.5153C49.5222 73.7963 44.1606 70.7365 44.1606 70.7365C42.77 69.8175 40.897 70.1989 39.9768 71.5902C39.0578 72.9808 39.4392 74.8537 40.8292 75.7746Z" fill="#F9BB6B"/>
<path d="M56.8417 62.0735C56.2445 63.1246 56.7344 64.5316 57.9375 65.2161L60.1153 66.4568L62.2808 62.6492L60.1035 61.4098C58.9004 60.7252 57.4402 61.0218 56.8417 62.0735Z" fill="#F4F4F4"/>
<path d="M56.8417 62.0735C56.6388 62.432 58.3574 61.2052 59.4728 62.9201C61.2128 65.5977 60.1153 66.4568 60.1153 66.4568L62.2808 62.6492L60.1035 61.4098C58.9004 60.7252 57.4402 61.0218 56.8417 62.0735Z" fill="#E9E9E9"/>
<path d="M47.7157 68.354C47.1622 69.3275 47.6161 70.6283 48.7291 71.2627L50.7436 72.409L52.7473 68.8867L50.7327 67.7404C49.6203 67.1072 48.2699 67.3818 47.7157 68.354Z" fill="#F4F4F4"/>
<path d="M47.7157 68.354C47.5276 68.685 49.1174 67.5505 50.1492 69.1385C51.7586 71.6151 50.7436 72.409 50.7436 72.409L52.7473 68.8867L50.7327 67.7404C49.6203 67.1072 48.2699 67.3818 47.7157 68.354Z" fill="#E9E9E9"/>
<path d="M40.4801 72.3455C39.9175 73.3327 40.3775 74.6556 41.5074 75.2991L43.5545 76.464L45.589 72.886L43.5438 71.7217C42.4139 71.0782 41.0407 71.3576 40.4801 72.3455Z" fill="#F4F4F4"/>
<path d="M40.4801 72.3455C40.2881 72.6814 41.9039 71.5296 42.9506 73.1418C44.5866 75.657 43.5545 76.464 43.5545 76.464L45.589 72.886L43.5438 71.7217C42.4139 71.0782 41.0407 71.3576 40.4801 72.3455Z" fill="#E9E9E9"/>
<path d="M66.4541 21.3815L66.2643 20.904C65.5593 19.1352 66.0799 17.7879 67.3726 17.8905L81.4386 19.0181L83.4096 23.9642L70.0031 24.496C68.7717 24.5453 67.1597 23.1516 66.4541 21.3815Z" fill="#008867"/>
<path d="M69.1966 28.2692L69.0068 27.7917C68.3012 26.0216 68.7716 24.5453 70.003 24.4961L83.4095 23.9643L85.3798 28.9091L72.6336 31.1016C71.4634 31.3027 69.9016 30.038 69.1966 28.2692Z" fill="white"/>
<path d="M71.9398 35.1546L71.7499 34.6772C71.045 32.9083 71.4633 31.3024 72.6335 31.1014L85.3797 28.9089L87.35 33.8537L75.2653 37.7063C74.1551 38.0598 72.6454 36.9248 71.9398 35.1546Z" fill="#008867"/>
<path d="M74.6836 42.0417L74.4938 41.5642C73.7882 39.7941 74.1551 38.0598 75.2652 37.7064L87.35 33.8538L89.3197 38.8005L77.8958 44.3119C76.8475 44.8184 75.3886 43.8105 74.6836 42.0417Z" fill="white"/>
<path d="M77.4258 48.9281L77.2372 48.4501C76.5304 46.6806 76.8477 44.8186 77.8959 44.3121L89.3198 38.8007L91.2902 43.7455L80.5277 50.917C79.5395 51.5759 78.1314 50.6983 77.4258 48.9281Z" fill="#008867"/>
<path d="M80.1708 55.8145L79.9797 55.3376C79.2741 53.5675 79.5393 51.5759 80.5276 50.917L91.29 43.7455L93.2604 48.6903L83.1581 57.5225C82.2311 58.3332 80.8745 57.584 80.1708 55.8145Z" fill="white"/>
<path d="M82.9132 62.7008L82.7233 62.2233C82.0177 60.4532 82.2315 58.3332 83.1585 57.5225L93.2607 48.6903L95.2304 53.637L85.7897 64.1262C84.9233 65.0905 83.6188 64.4709 82.9132 62.7008Z" fill="#008867"/>
<path d="M67.0733 17.8702L64.4747 18.5653C62.771 19.021 61.9356 20.8187 62.6332 22.5723L62.8237 23.0448C63.5213 24.7984 65.472 25.8005 67.1537 25.2897L69.7192 24.5105L67.0733 17.8702Z" fill="#008867"/>
<path d="M69.7192 24.5105L67.1537 25.2897C65.472 25.8005 64.6538 27.643 65.3526 29.3961L65.5419 29.8691C66.2395 31.6228 68.1724 32.5787 69.8321 32.0129L72.3632 31.1502L69.7192 24.5105Z" fill="#F4F4F4"/>
<path d="M72.3631 31.1503L69.832 32.0129C68.1723 32.5787 67.3712 34.4662 68.0707 36.2205L68.2593 36.6923C68.9575 38.4472 70.8714 39.3575 72.5103 38.7361L75.009 37.7906L72.3631 31.1503Z" fill="#008867"/>
<path d="M75.0091 37.7907L72.5104 38.7362C70.8715 39.3576 70.0907 41.29 70.7883 43.0437L70.9775 43.5167C71.677 45.271 73.5738 46.1365 75.1881 45.4613L77.6531 44.4304L75.0091 37.7907Z" fill="#F4F4F4"/>
<path d="M77.6529 44.43L75.1878 45.4609C73.5736 46.1361 72.8086 48.114 73.5074 49.8671L73.6967 50.3401C74.3943 52.0938 76.2727 52.9149 77.8662 52.1841L80.2988 51.0704L77.6529 44.43Z" fill="#008867"/>
<path d="M80.2989 51.0707L77.8663 52.1844C76.2728 52.9152 75.5275 54.9368 76.2257 56.6917L76.4137 57.1654C77.1125 58.9184 78.9719 59.6941 80.5452 58.9089L82.9429 57.7104L80.2989 51.0707Z" fill="#F4F4F4"/>
<path d="M82.9429 57.7102L80.5452 58.9087C78.9719 59.6939 78.2443 61.7616 78.9444 63.514L79.1324 63.9877C79.8306 65.7426 81.6723 66.4721 83.2235 65.6319L85.5888 64.3505L82.9429 57.7102Z" fill="#008867"/>
<path d="M77.8498 60.4024L79.5099 59.7409L77.8498 60.4024Z" fill="#E9E9E9"/>
<path d="M77.8498 60.4024L79.5099 59.7409C79.3044 59.9911 79.1338 60.2713 79.0013 60.572C78.6076 60.5959 78.2172 60.5368 77.8498 60.4024Z" fill="#171829"/>
<path d="M76.0929 58.7753C76.0541 58.6956 76.0179 58.6146 75.9835 58.5311L75.7955 58.0574C75.3742 56.9975 75.4821 55.8415 75.984 54.9291C75.9222 55.5039 75.9948 56.1041 76.2201 56.677C76.2214 56.6796 76.2226 56.6821 76.2232 56.6834L76.2238 56.6846C76.2251 56.6872 76.2244 56.689 76.2257 56.6916L76.4137 57.1652C76.4474 57.2475 76.4842 57.3297 76.5224 57.4082C76.523 57.4095 76.523 57.4095 76.5236 57.4107C77.2893 58.9857 79.0416 59.6538 80.5364 58.913C80.4686 58.9475 80.4015 58.9833 80.3362 59.0228C80.0199 59.2126 79.7427 59.457 79.5097 59.7408L77.8496 60.4023C77.1185 60.1348 76.48 59.5717 76.0929 58.7753Z" fill="#DFDFDF"/>
<path d="M76.5234 57.4108C77.291 58.9896 79.0489 59.6564 80.545 58.9087C80.5425 58.91 80.54 58.9112 80.5362 58.9131C79.0414 59.6538 77.2891 58.9858 76.5234 57.4108ZM76.2255 56.6916C76.2242 56.6891 76.2249 56.6872 76.2237 56.6847C76.2249 56.6872 76.2242 56.6891 76.2255 56.6916ZM76.223 56.6834C76.2224 56.6821 76.2212 56.6796 76.22 56.6771C76.2212 56.6796 76.2224 56.6821 76.223 56.6834ZM76.22 56.6771C75.9947 56.1041 75.922 55.5039 75.9838 54.9292C75.9857 54.9267 75.9864 54.9248 75.987 54.9229C75.9246 55.4996 75.994 56.1029 76.22 56.6771Z" fill="#DFDFDF"/>
<path d="M79.0009 60.572C79.1333 60.2713 79.3039 59.9911 79.5094 59.7409C79.7424 59.4571 80.0196 59.2127 80.3359 59.0229C79.7401 59.3815 79.2844 59.9317 79.0028 60.5727C79.0028 60.5727 79.0015 60.5733 79.0009 60.572Z" fill="#00B589"/>
<path d="M73.3754 51.9523C73.3366 51.8725 73.3004 51.7916 73.2667 51.7062L73.078 51.2344C72.8771 50.731 72.7979 50.2107 72.8256 49.7073L73.4892 49.8198C73.4904 49.8224 73.4904 49.8255 73.4916 49.8281C73.4928 49.8306 73.4935 49.8319 73.4947 49.8344C73.4947 49.8344 73.4947 49.8344 73.4953 49.8357C73.4947 49.8375 73.4953 49.8388 73.4965 49.8413C73.4977 49.8439 73.4983 49.8451 73.4996 49.8477L73.5002 49.8489C73.5008 49.8502 73.5014 49.8515 73.502 49.8527C73.5027 49.854 73.5027 49.854 73.5033 49.8553C73.5039 49.8565 73.5045 49.8578 73.5039 49.8597C73.5039 49.8597 73.5045 49.8609 73.5051 49.8622C73.5057 49.8635 73.5069 49.866 73.5075 49.8673L73.6968 50.3403C73.7299 50.4244 73.7649 50.506 73.8036 50.5858C73.8042 50.5871 73.8055 50.5896 73.8061 50.5909C74.5078 52.031 76.0442 52.7477 77.4598 52.3366C77.5968 52.2965 77.7334 52.2458 77.8663 52.1843C77.8638 52.1855 77.8612 52.1868 77.8587 52.188C77.1442 52.5181 76.6025 53.1071 76.2842 53.8144C75.1034 53.839 73.9533 53.1443 73.3754 51.9523Z" fill="#DFDFDF"/>
<path d="M72.8253 49.7073C72.8528 49.1617 73.0066 48.6377 73.2642 48.1791C73.2122 48.7162 73.2815 49.2773 73.4889 49.8198L72.8253 49.7073Z" fill="#E9E9E9"/>
<path d="M73.8062 50.5908C74.5091 52.0304 76.0443 52.7476 77.4598 52.3365C76.0443 52.7476 74.5079 52.031 73.8062 50.5908ZM73.5076 49.8672C73.507 49.866 73.5058 49.8634 73.5051 49.8622C73.5058 49.8634 73.507 49.866 73.5076 49.8672ZM73.5039 49.8596C73.5046 49.8577 73.5039 49.8565 73.5033 49.8552C73.5039 49.8565 73.5046 49.8577 73.5039 49.8596ZM73.5021 49.8527C73.5015 49.8514 73.5009 49.8502 73.5003 49.8489C73.5009 49.8502 73.5015 49.8514 73.5021 49.8527ZM73.4996 49.8476C73.4984 49.8451 73.4978 49.8438 73.4966 49.8413C73.4978 49.8438 73.4984 49.8451 73.4996 49.8476ZM73.4966 49.8413C73.4953 49.8388 73.4947 49.8375 73.4954 49.8356C73.4947 49.8375 73.4953 49.8388 73.4966 49.8413ZM73.4948 49.8343C73.4935 49.8318 73.4929 49.8305 73.4917 49.828C73.4929 49.8305 73.4935 49.8318 73.4948 49.8343ZM73.4917 49.828C73.4904 49.8255 73.4905 49.8223 73.4892 49.8198C73.2819 49.2773 73.2126 48.7162 73.2645 48.1791C73.2658 48.1784 73.2652 48.1772 73.2664 48.1766C73.2132 48.7174 73.2812 49.2823 73.4917 49.828Z" fill="#00B589"/>
<path d="M76.2839 53.8143C76.6022 53.107 77.1439 52.5181 77.8584 52.1879C77.1451 52.5175 76.604 53.1077 76.287 53.8143C76.2851 53.8137 76.2839 53.8143 76.2839 53.8143ZM77.8584 52.1879C77.8609 52.1867 77.8634 52.1855 77.866 52.1842C77.8634 52.1855 77.8609 52.1867 77.8584 52.1879Z" fill="#DFDFDF"/>
<path d="M62.4037 24.4353L62.9855 24.2025L62.4037 24.4353Z" fill="#E5AC74"/>
<path d="M62.5042 24.6605C62.4685 24.5871 62.4347 24.5112 62.4041 24.4353L62.9859 24.2025L63.4083 24.0347C64.3028 25.1276 65.7618 25.6721 67.0741 25.3127L67.0754 25.3121C67.0779 25.3109 67.0792 25.3103 67.0823 25.3103C67.0823 25.3103 67.0836 25.3097 67.0849 25.3091C67.0861 25.3085 67.0874 25.3078 67.0906 25.3079L67.0653 25.317C66.9648 25.3518 66.8649 25.391 66.7706 25.4353L64.2801 26.4268C63.533 26.0653 62.8882 25.4506 62.5042 24.6605Z" fill="#171829"/>
<path d="M64.2798 26.4269L66.7703 25.4353C66.1621 25.7169 65.6947 26.1883 65.4125 26.7638C65.0233 26.7166 64.6399 26.6009 64.2798 26.4269ZM67.065 25.3171L67.0903 25.3079L67.0928 25.3067C67.096 25.3067 67.0972 25.3061 67.0985 25.3055C67.0998 25.3049 67.1023 25.3037 67.1042 25.3043C67.1054 25.3037 67.1067 25.3031 67.108 25.3025C67.1105 25.3012 67.1124 25.3019 67.1149 25.3007C67.1162 25.3 67.1162 25.3 67.1174 25.2994C67.1206 25.2995 67.1219 25.2988 67.1231 25.2982C67.1244 25.2976 67.1257 25.297 67.1275 25.2977C67.1288 25.297 67.1313 25.2958 67.1326 25.2952C67.1339 25.2946 67.1345 25.2958 67.1358 25.2952C67.137 25.2946 67.1396 25.2934 67.1421 25.2921C67.1433 25.2915 67.1433 25.2915 67.1452 25.2922C67.1478 25.291 67.1503 25.2897 67.1534 25.2898C67.1516 25.2891 67.1503 25.2897 67.149 25.2903C67.1478 25.291 67.1465 25.2916 67.1452 25.2922C67.1452 25.2922 67.1452 25.2922 67.144 25.2928C67.1433 25.2915 67.1421 25.2921 67.1408 25.2928C67.1396 25.2934 67.1395 25.2934 67.1395 25.2934C67.137 25.2946 67.137 25.2946 67.1358 25.2952L67.1345 25.2958C67.1326 25.2952 67.1313 25.2958 67.1301 25.2964C67.1086 25.3037 67.0871 25.3111 67.065 25.3171Z" fill="#E9E9E9"/>
<path d="M63.4082 24.0347L63.4107 24.0335C64.3064 25.1257 65.7617 25.6721 67.074 25.3127C65.7617 25.6721 64.3026 25.1276 63.4082 24.0347ZM67.0752 25.3121C67.0778 25.3109 67.079 25.3103 67.0822 25.3103C67.079 25.3103 67.0778 25.3109 67.0752 25.3121ZM67.0847 25.3091C67.086 25.3084 67.0873 25.3078 67.0904 25.3079C67.0873 25.3078 67.086 25.3084 67.0847 25.3091ZM67.0929 25.3066C67.0961 25.3067 67.0973 25.306 67.0986 25.3054C67.0973 25.306 67.0961 25.3067 67.0929 25.3066ZM67.1043 25.3042C67.1056 25.3036 67.1068 25.303 67.1081 25.3024C67.1068 25.303 67.1056 25.3036 67.1043 25.3042ZM67.115 25.3006C67.1163 25.3 67.1163 25.3 67.1176 25.2993C67.1163 25.3 67.1163 25.3 67.115 25.3006ZM67.1233 25.2982C67.1245 25.2975 67.1258 25.2969 67.1277 25.2976C67.1258 25.2969 67.1245 25.2975 67.1233 25.2982ZM67.1327 25.2951C67.134 25.2945 67.134 25.2945 67.1359 25.2951C67.1346 25.2958 67.134 25.2945 67.1327 25.2951ZM67.1422 25.2921C67.1435 25.2915 67.1435 25.2915 67.1454 25.2921C67.1435 25.2915 67.1435 25.2915 67.1422 25.2921Z" fill="#00B589"/>
<path d="M65.4129 26.7639C65.6951 26.1884 66.1625 25.717 66.7707 25.4354C66.865 25.3911 66.9649 25.352 67.0654 25.3172C67.0875 25.3111 67.109 25.3038 67.1304 25.2965C66.3451 25.5421 65.7529 26.082 65.4179 26.7645C65.416 26.7639 65.4142 26.7632 65.4129 26.7639ZM67.1304 25.2965C67.1317 25.2959 67.133 25.2953 67.1349 25.2959C67.133 25.2953 67.1317 25.2959 67.1304 25.2965ZM67.1361 25.2953C67.1374 25.2947 67.1374 25.2947 67.1399 25.2935C67.1387 25.2941 67.1374 25.2947 67.1361 25.2953ZM67.1412 25.2928C67.1425 25.2922 67.1437 25.2916 67.1443 25.2929C67.1437 25.2916 67.1425 25.2922 67.1412 25.2928ZM67.1456 25.2923C67.1469 25.2917 67.1481 25.291 67.1494 25.2904C67.1481 25.291 67.1469 25.2917 67.1456 25.2923Z" fill="#DFDFDF"/>
<path d="M78.2873 62.9679C78.3484 62.514 78.4917 62.078 78.7026 61.6843C78.6602 62.0478 78.6705 62.42 78.7369 62.7884L78.2873 62.9679Z" fill="#171829"/>
<path d="M78.737 62.7884C78.6706 62.4199 78.6602 62.0477 78.7027 61.6843C78.7033 61.6824 78.7046 61.6786 78.7065 61.6761C78.6634 62.0415 78.6731 62.4156 78.7395 62.7871L78.737 62.7884Z" fill="#00B589"/>
<path d="M70.6563 45.1298C70.6175 45.05 70.5807 44.9677 70.5476 44.8836L70.3583 44.4106C69.9468 43.3741 70.0528 42.2785 70.5459 41.4252C70.5004 41.9466 70.5736 42.4933 70.7818 43.0245C70.7824 43.0258 70.7824 43.0289 70.783 43.0302C70.7836 43.0314 70.7836 43.0314 70.7836 43.0314C70.7842 43.0327 70.7854 43.0352 70.786 43.0365C70.786 43.0365 70.786 43.0365 70.7867 43.0378C70.7873 43.039 70.7872 43.0422 70.7879 43.0434L70.9771 43.5165C71.0108 43.6019 71.0471 43.6829 71.0864 43.7639C71.0864 43.7639 71.0864 43.7639 71.0871 43.7652C71.8546 45.3408 73.6286 46.0953 75.1617 45.4721C75.1706 45.4678 75.1795 45.4635 75.1877 45.4611C75.1851 45.4623 75.1826 45.4635 75.1795 45.4635C75.1757 45.4653 75.1744 45.4659 75.1706 45.4678C74.4418 45.7783 73.8876 46.3545 73.5657 47.0541C72.3804 47.034 71.233 46.3161 70.6563 45.1298Z" fill="#E9E9E9"/>
<path d="M71.0872 43.7653C71.8548 45.3409 73.6288 46.0954 75.1619 45.4722C73.6288 46.0954 71.8548 45.3409 71.0872 43.7653ZM70.788 43.0436C70.7874 43.0423 70.7875 43.0391 70.7868 43.0379C70.7875 43.0391 70.7874 43.0423 70.788 43.0436ZM70.7862 43.0366C70.7856 43.0353 70.7844 43.0328 70.7838 43.0315C70.7844 43.0328 70.7856 43.0353 70.7862 43.0366ZM70.7832 43.0303C70.7825 43.029 70.7826 43.0259 70.782 43.0246C70.7826 43.0259 70.7825 43.029 70.7832 43.0303ZM70.782 43.0246C70.5738 42.4934 70.5006 41.9467 70.5461 41.4253C70.5467 41.4234 70.5467 41.4234 70.5474 41.4215C70.5012 41.9449 70.5732 42.4921 70.782 43.0246Z" fill="#DFDFDF"/>
<path d="M73.5658 47.0541C73.8878 46.3544 74.442 45.7782 75.1707 45.4678C74.442 45.7782 73.8922 46.3539 73.5689 47.0542C73.5689 47.0542 73.5671 47.0535 73.5658 47.0541ZM75.1707 45.4678C75.1745 45.4659 75.1758 45.4653 75.1796 45.4635C75.1758 45.4653 75.1745 45.4659 75.1707 45.4678ZM75.1796 45.4635C75.1827 45.4635 75.1853 45.4623 75.1878 45.461C75.1853 45.4623 75.1827 45.4635 75.1796 45.4635Z" fill="#00B589"/>
<path d="M65.2215 31.4836C65.1821 31.4025 65.1452 31.3203 65.1103 31.2355L64.9229 30.7631C64.5186 29.7481 64.6241 28.706 65.1102 27.9062C65.0778 28.3837 65.1522 28.8876 65.3475 29.3827C65.3481 29.384 65.3481 29.384 65.3481 29.384C65.3487 29.3853 65.3493 29.3865 65.3506 29.3891C65.3506 29.3891 65.3506 29.3891 65.3499 29.3909C65.3505 29.3922 65.3512 29.3935 65.3524 29.396L65.5417 29.8691C65.5747 29.9532 65.6116 30.0354 65.6516 30.1177C65.6516 30.1177 65.6516 30.1177 65.6522 30.119C66.4265 31.7117 68.2512 32.5511 69.8318 32.0128C69.8293 32.014 69.8249 32.0146 69.8223 32.0159C69.0487 32.2824 68.4633 32.8362 68.1307 33.5301C66.9356 33.4255 65.7933 32.6597 65.2215 31.4836Z" fill="#E9E9E9"/>
<path d="M65.6521 30.119C66.4264 31.7117 68.2511 32.5512 69.8317 32.0128C68.2511 32.5512 66.4264 31.7117 65.6521 30.119ZM65.3523 29.396C65.3511 29.3935 65.3504 29.3922 65.3498 29.3909C65.3504 29.3922 65.3511 29.3935 65.3523 29.396ZM65.3505 29.3891C65.3492 29.3865 65.3486 29.3853 65.348 29.384C65.3486 29.3853 65.3492 29.3865 65.3505 29.3891ZM65.3474 29.3827C65.1521 28.8876 65.0777 28.3837 65.1101 27.9062C65.1108 27.9043 65.1127 27.9018 65.1133 27.8999C65.0803 28.3793 65.1502 28.8838 65.3474 29.3827Z" fill="#DFDFDF"/>
<path d="M68.1308 33.53C68.4634 32.8361 69.0488 32.2823 69.8224 32.0158C69.0501 32.2817 68.4672 32.8374 68.1339 33.53L68.1308 33.53ZM69.8224 32.0158C69.8249 32.0145 69.8294 32.014 69.8319 32.0127C69.8294 32.014 69.8249 32.0145 69.8224 32.0158Z" fill="#00B589"/>
<path d="M67.9392 38.3067C67.9004 38.2269 67.8629 38.1434 67.8299 38.0593L67.6418 37.5856C67.2333 36.5618 67.3397 35.4926 67.8274 34.667C67.7891 35.1646 67.862 35.6879 68.0627 36.2008C68.0634 36.2021 68.0634 36.2021 68.0634 36.2021C68.064 36.2033 68.0646 36.2046 68.0652 36.2059C68.0658 36.2071 68.0664 36.2084 68.0664 36.2084C68.0671 36.2097 68.0677 36.2109 68.0683 36.2122L68.0689 36.2135C68.0701 36.216 68.0707 36.2172 68.0707 36.2204L68.2594 36.6922C68.2606 36.6979 68.263 36.7029 68.2649 36.7067C68.2961 36.787 68.3324 36.8649 68.3687 36.9396L68.3693 36.9408C68.3693 36.9408 68.3693 36.9408 68.3699 36.9421C69.1368 38.5196 70.923 39.3152 72.4737 38.7507C72.4869 38.7459 72.4977 38.7422 72.5104 38.736C71.7522 39.0248 71.178 39.5919 70.8485 40.2922C69.6586 40.2304 68.5134 39.4879 67.9392 38.3067Z" fill="#E9E9E9"/>
<path d="M68.369 36.9408L68.3684 36.9396L68.369 36.9408ZM68.3696 36.9421C69.1365 38.5196 70.9227 39.3152 72.4734 38.7507C70.9227 39.3152 69.1365 38.5196 68.3696 36.9421ZM68.2646 36.7067C68.2627 36.7029 68.2603 36.6979 68.2591 36.6922C68.2603 36.6979 68.2627 36.7029 68.2646 36.7067ZM68.0704 36.2204C68.0704 36.2172 68.0698 36.216 68.0686 36.2134C68.0698 36.216 68.0704 36.2172 68.0704 36.2204ZM68.068 36.2122C68.0674 36.2109 68.0668 36.2096 68.0661 36.2084C68.0668 36.2096 68.0674 36.2109 68.068 36.2122ZM68.0649 36.2058C68.0643 36.2046 68.0637 36.2033 68.0631 36.202C68.0637 36.2033 68.0643 36.2046 68.0649 36.2058ZM68.0624 36.2008C67.8616 35.6879 67.7888 35.1646 67.8271 34.667C67.829 34.6645 67.8296 34.6626 67.8303 34.6607C67.7907 35.1621 67.8623 35.6861 68.0624 36.2008Z" fill="#00B589"/>
<path d="M70.8482 40.2921C71.1777 39.5919 71.7519 39.0247 72.5101 38.736C71.7532 39.0241 71.1815 39.5932 70.8519 40.2934C70.8513 40.2921 70.8501 40.2927 70.8482 40.2921Z" fill="#DFDFDF"/>
<path d="M57.7361 20.7203C57.5263 20.337 56.7184 20.1209 56.0749 20.0205C55.8618 20.1523 55.6505 20.3067 55.447 20.487C54.1072 21.6721 51.5247 23.4112 49.1334 24.9384C49.9801 25.1764 50.9861 25.3557 51.6196 25.2935C52.8877 25.1685 58.0799 21.3436 57.7361 20.7203Z" fill="#F4F4F4"/>
<path d="M30.5631 77.1309C28.167 70.4568 20.8598 50.1197 20.4715 49.1439C20.0072 47.9765 21.0873 46.7627 21.0898 46.7615L32.7837 76.1187C32.7856 76.1225 32.7868 76.125 32.7886 76.1288C32.7886 76.132 32.7898 76.1345 32.7911 76.137L32.7917 76.1383C32.8321 76.2376 32.8757 76.3369 32.9225 76.4331C33.069 76.7345 33.2453 77.0135 33.4464 77.2694C32.3747 77.2802 31.4139 77.226 30.5631 77.1309Z" fill="#CF9B68"/>
<path d="M32.9225 76.4331C32.8757 76.3369 32.8321 76.2376 32.7917 76.1383C32.8309 76.2351 32.8739 76.33 32.9194 76.4237C33.0678 76.7288 33.2472 77.011 33.4509 77.2689C33.449 77.2682 33.4477 77.2688 33.4464 77.2694C33.2453 77.0135 33.069 76.7345 32.9225 76.4331ZM32.7911 76.137C32.7898 76.1345 32.7886 76.132 32.7886 76.1288C32.7886 76.132 32.7898 76.1345 32.7911 76.137ZM32.7837 76.1187L21.0898 46.7615L32.7837 76.1187Z" fill="#151624"/>
<path d="M78.0039 63.8852C77.8956 63.6624 77.8012 63.4296 77.7271 63.1902L78.737 62.7884C78.7796 63.0338 78.8481 63.2776 78.9443 63.5141L79.1323 63.9878C79.1335 63.9903 79.1341 63.9948 79.1353 63.9973C79.1574 64.0523 79.1801 64.1054 79.204 64.158C79.2164 64.1833 79.2281 64.2073 79.2404 64.2327C79.8442 65.4747 81.0527 66.1253 82.2622 65.9537C81.6251 66.1115 80.6703 66.3143 80.2594 66.2355C79.7279 66.1338 78.6286 65.1703 78.0039 63.8852Z" fill="#E4AA62"/>
<path d="M77.7273 63.1901L78.7372 62.7884L77.7273 63.1901Z" fill="#171829"/>
<path d="M79.2407 64.2326C79.2284 64.2073 79.2167 64.1832 79.2044 64.1579C79.2167 64.1832 79.2284 64.2073 79.2401 64.2313C79.8476 65.4809 81.0681 66.1305 82.2846 65.9476C82.2777 65.9494 82.2707 65.9512 82.2625 65.9536C81.053 66.1252 79.8445 65.4746 79.2407 64.2326ZM79.1356 63.9972C79.1344 63.9947 79.1338 63.9903 79.1326 63.9877C79.1338 63.9903 79.1344 63.9947 79.1356 63.9972ZM78.9446 63.5141C78.8484 63.2775 78.78 63.0337 78.7374 62.7883L78.7399 62.7871C78.7831 63.0338 78.8484 63.2775 78.9446 63.5141Z" fill="#00B589"/>
<path d="M82.8558 65.7966C82.864 65.7942 82.8735 65.7911 82.8811 65.7874L82.8823 65.79C82.8823 65.79 82.8723 65.7918 82.8558 65.7966Z" fill="#00B589"/>
</svg>
